<svg width="20" height="20" xmlns="http://www.w3.org/2000/svg"><title>facebook-messenger</title><desc>Created with Sketch.</desc><path d="M10 0A9.65 9.65 0 000 9.7a9.51 9.51 0 003.14 7.18.81.81 0 01.27.56v1.78a.81.81 0 001.13.71l2-.87a.75.75 0 01.53 0 11 11 0 002.9.38c5.368.008 9.727-4.337 9.735-9.705C19.713 4.367 15.368.008 10 0zm6 7.46l-2.93 4.66a1.5 1.5 0 01-2.17.4l-2.34-1.75a.6.6 0 00-.72 0l-3.16 2.4a.47.47 0 01-.68-.63l2.93-4.66a1.5 1.5 0 012.17-.4l2.34 1.75a.6.6 0 00.72 0l3.16-2.4a.47.47 0 01.68.63z" fill="#000" fill-rule="nonzero"/></svg>