<svg xmlns="http://www.w3.org/2000/svg" width="22" height="22"><g fill="#fff"><path d="M15.583 1.833a4.597 4.597 0 014.584 4.584v9.166a4.597 4.597 0 01-4.584 4.584H6.417a4.597 4.597 0 01-4.584-4.584V6.417a4.597 4.597 0 014.584-4.584h9.166m0-1.833H6.417C2.887 0 0 2.888 0 6.417v9.166C0 19.113 2.888 22 6.417 22h9.166C19.113 22 22 19.113 22 15.583V6.417C22 2.887 19.113 0 15.583 0z"/><path d="M16.958 6.417a1.375 1.375 0 110-2.75 1.375 1.375 0 010 2.75zM11 7.333a3.667 3.667 0 110 7.334 3.667 3.667 0 010-7.334M11 5.5a5.5 5.5 0 100 11 5.5 5.5 0 000-11z"/></g></svg>