<svg xmlns="http://www.w3.org/2000/svg" width="22" height="22"><path fill="#fff" d="M18.338 18.338h-3.152V12.98c0-1.284-.458-2.16-1.599-2.16-.87 0-1.386.589-1.616 1.163-.086.206-.109.487-.109.774v5.581H8.711v-9.8h3.151v1.364c.459-.653 1.175-1.593 2.843-1.593 2.069 0 3.634 1.364 3.634 4.304zM5.348 7.048h-.023c-1.005 0-1.657-.75-1.657-1.69 0-.957.669-1.69 1.697-1.69s1.657.728 1.68 1.69c0 .94-.652 1.69-1.697 1.69zm1.472 11.29H3.668v-9.8H6.82zM20.24 0H1.88C.877 0 0 .722 0 1.713v18.402C0 21.112.877 22 1.88 22h18.355C21.244 22 22 21.106 22 20.115V1.713C22.006.722 21.244 0 20.24 0z"/></svg>